# xmcd CD Database Entry
#
# Track frame offsets:
# 150
# 14847
# 28275
# 40272
# 51897
# 65697
# 75040
# 88232
# 100237
# 112422
# 128357
# 148947
# 163947
# 185172
# 202272
# 216934
# 235762
# 254172
# 267670
# 281997
#
# Disc length: 3977 seconds
#
# Revision: 2
# Processed by: cddbd v1.4PL0 Copyright (c) Steve Scherf et al.
# Submitted via: tcd 2.0b
#
DISCID=4a0f8714
DTITLE=Eri esittäjid - 20 hittiä
DYEAR=1900
DGENRE=
TTITLE0=ÄÄnesi mä kuulen - Katri-Helena
TTITLE1=Hyvännäköinen - Markku Aro
TTITLE2=Amado mio - Kari Tapio
TTITLE3=Lalaika - Ann Christine
TTITLE4=Hiljainen kitara - Danny
TTITLE5=Divarin helmi - Kristina Hautala
TTITLE6=Haltin häät -  Taiska
TTITLE7=Anneli, Anneli, Anneli - Seppo Hanski
TTITLE8=Hyväile, hyväile vain - Tamara Lund
TTITLE9=Juhlavalssi - Irwin Goodman
TTITLE10=Et itkeä saa Argentina - Seija Simola
TTITLE11=Pieni Nukke - Fredi
TTITLE12=Jokainen päivä on liikaa - Päivi Paunu
TTITLE13=Oon voimissain - Virve Rosti
TTITLE14=Aurinko Laskee länteen - Viktor Klimenko
TTITLE15=Keurusselän Sini - Berit
TTITLE16=Akselin ja Elinan häävalssi - Tapani kansa
TTITLE17=Hienohelma - Arja Koriseva
TTITLE18=Äänisen aallot - Jaakko Ryhänen
TTITLE19=Albatrossi - Juha Vainio
EXTD=
EXTT0=
EXTT1=
EXTT2=
EXTT3=
EXTT4=
EXTT5=
EXTT6=
EXTT7=
EXTT8=
EXTT9=
EXTT10=
EXTT11=
EXTT12=
EXTT13=
EXTT14=
EXTT15=
EXTT16=
EXTT17=
EXTT18=
EXTT19=
PLAYORDER=
